<?xml version="1.0" standalone="no"?>
<!DOCTYPE svg PUBLIC "-//W3C//DTD SVG 20010904//EN"
 "http://www.w3.org/TR/2001/REC-SVG-20010904/DTD/svg10.dtd">
<svg version="1.0" xmlns="http://www.w3.org/2000/svg"
 width="1280.000000pt" height="1280.000000pt" viewBox="0 0 1280.000000 1280.000000"
 preserveAspectRatio="xMidYMid meet">
<g transform="translate(0.000000,1280.000000) scale(0.100000,-0.100000)"
fill="#000000" stroke="none">
<path d="M6130 10583 c-60 -4 -236 -23 -282 -30 -24 -3 -38 -12 -41 -24 -3
-10 -20 -27 -38 -38 -19 -12 -28 -21 -21 -21 6 0 12 -6 12 -13 0 -16 -70 -57
-96 -57 -10 0 -42 -10 -70 -21 -41 -17 -53 -28 -58 -50 -5 -25 -10 -28 -58
-34 -60 -7 -292 -24 -294 -22 -1 1 -4 14 -8 30 -5 20 -3 27 8 27 8 0 16 -5 18
-11 4 -12 118 27 118 42 0 5 -4 9 -10 9 -25 0 -6 30 25 40 19 6 35 18 35 26 0
8 -3 14 -7 14 -45 0 -413 -131 -413 -146 0 -20 -41 -39 -50 -24 -10 16 -27 10
-190 -65 -277 -126 -584 -317 -840 -521 -172 -138 -486 -451 -622 -621 -185
-233 -328 -454 -460 -711 -73 -143 -104 -219 -58 -144 11 17 26 32 35 32 8 0
29 32 51 78 50 108 125 222 147 222 9 0 17 -7 17 -15 0 -11 7 -14 25 -9 21 5
25 3 25 -17 -1 -23 -6 -38 -48 -144 -11 -27 -23 -70 -26 -95 l-7 -45 19 22
c11 12 39 80 62 150 23 70 49 142 58 158 40 78 129 169 180 182 24 6 173 -4
181 -13 3 -3 -32 -78 -77 -168 -45 -90 -109 -230 -141 -311 -33 -80 -61 -148
-63 -151 -4 -3 -88 -9 -308 -20 -58 -3 -118 -7 -135 -9 -16 -2 -40 -4 -52 -4
-21 -1 -51 -37 -40 -48 11 -10 84 -23 148 -26 60 -3 70 -6 99 -35 18 -19 30
-39 26 -47 -3 -8 2 -21 10 -30 9 -9 14 -24 11 -35 -4 -14 2 -20 24 -25 16 -4
33 -4 39 0 12 8 13 35 1 35 -12 0 -51 76 -51 99 0 25 11 27 98 23 51 -3 75 -8
79 -18 3 -7 -6 -51 -20 -96 -40 -133 -55 -194 -83 -341 -24 -121 -29 -138 -48
-142 -21 -4 -355 -45 -368 -45 -12 0 -10 38 3 62 15 28 15 104 -1 122 -8 10
-21 14 -36 10 -16 -4 -26 -1 -30 9 -5 13 33 135 66 212 45 105 61 135 79 144
31 17 27 41 -6 41 -26 0 -30 -6 -56 -79 -20 -57 -38 -88 -61 -109 -53 -46 -60
-81 -69 -311 -2 -53 0 -74 10 -78 21 -8 16 -43 -6 -43 -26 0 -81 -53 -81 -78
0 -21 32 -47 65 -54 17 -3 20 -10 17 -51 -3 -38 -1 -46 11 -41 17 6 37 -41 37
-86 0 -15 7 -34 16 -41 9 -7 21 -25 27 -39 10 -23 11 -23 14 -5 2 12 15 34 28
50 22 28 25 29 40 13 20 -19 29 -97 28 -240 -1 -149 5 -140 -120 -171 -60 -15
-114 -27 -121 -27 -21 0 -102 -62 -102 -78 0 -9 6 -12 16 -8 9 3 28 9 42 13
15 3 32 12 37 20 11 14 174 63 212 63 29 0 30 -28 3 -63 -11 -14 -20 -34 -20
-45 0 -30 -18 -74 -41 -98 -20 -21 -22 -21 -77 -7 -31 8 -64 21 -72 28 -8 7
-28 17 -45 21 -16 4 -36 11 -42 17 -9 7 -13 5 -13 -6 0 -22 77 -87 103 -87 13
0 47 -7 75 -15 l52 -16 0 -80 c0 -52 5 -90 15 -110 14 -27 14 -34 -1 -77 -15
-43 -15 -53 -2 -117 9 -38 19 -78 23 -87 5 -13 -4 -22 -44 -42 -28 -14 -56
-26 -63 -26 -7 0 -25 -16 -40 -34 -32 -40 -38 -68 -10 -43 10 10 24 17 30 17
7 0 12 5 12 10 0 14 118 70 135 64 6 -3 17 -19 23 -37 6 -18 29 -81 51 -142
22 -60 41 -113 41 -117 1 -25 -173 30 -205 65 -11 12 -34 23 -50 24 l-30 2 36
-32 c32 -29 39 -46 64 -147 28 -116 42 -156 52 -146 3 2 -9 52 -26 109 -32
107 -37 137 -23 137 4 0 52 -14 106 -32 l99 -33 43 -89 c24 -49 44 -97 44
-106 0 -9 14 -37 31 -63 17 -26 28 -51 25 -56 -4 -6 -47 -31 -96 -57 -102 -54
-127 -76 -136 -122 -6 -27 -4 -31 10 -26 9 3 16 11 16 18 0 33 187 156 238
156 7 0 63 -51 125 -113 86 -87 116 -124 131 -162 61 -164 73 -204 64 -213
-22 -22 -399 99 -422 136 -4 6 -13 9 -21 6 -8 -3 -26 6 -41 21 -14 14 -29 24
-32 21 -8 -9 40 -49 81 -68 20 -10 37 -22 37 -28 0 -5 11 -10 24 -10 13 0 43
-9 67 -19 24 -11 103 -36 174 -56 72 -20 136 -39 143 -43 12 -6 41 -73 42 -94
0 -4 -26 -21 -58 -37 -92 -46 -162 -105 -183 -151 -13 -30 -16 -47 -9 -58 9
-15 9 -16 10 -1 1 54 186 205 241 197 24 -3 30 -15 85 -178 32 -92 83 -200
123 -260 37 -54 40 -80 9 -81 -18 0 -16 -3 11 -13 24 -8 41 -25 57 -56 29 -54
30 -74 4 -98 -13 -12 -22 -36 -25 -68 -5 -45 -4 -47 7 -19 6 16 17 36 25 43 7
7 13 18 13 23 0 20 29 7 39 -19 27 -64 46 -86 244 -278 26 -26 47 -55 47 -66
0 -10 11 -24 25 -30 14 -6 25 -15 25 -20 0 -21 236 -238 260 -238 6 0 47 -24
93 -53 142 -93 186 -116 244 -131 32 -9 59 -13 61 -11 2 2 -15 9 -38 15 -24 6
-60 22 -81 36 -21 13 -43 24 -48 24 -5 0 -30 18 -56 39 -53 44 -86 98 -67 110
8 4 -7 26 -42 60 -31 31 -56 49 -60 42 -9 -14 -36 -2 -36 16 0 9 6 13 15 9 11
-4 15 2 15 23 0 21 10 38 35 60 43 37 152 94 165 86 5 -3 18 3 28 13 33 33
410 142 445 129 7 -3 22 -27 32 -54 10 -26 51 -115 91 -197 41 -82 74 -154 74
-160 0 -6 9 -19 20 -29 36 -31 30 -38 -63 -70 -34 -12 -87 -40 -118 -61 -94
-66 -121 -128 -79 -177 l21 -24 -6 32 c-10 50 11 99 58 137 46 37 182 106 209
106 11 0 37 -29 65 -71 27 -39 69 -95 96 -125 47 -55 55 -70 38 -76 -5 -1 -13
-15 -16 -30 -5 -21 -1 -33 19 -53 49 -49 33 -56 -63 -24 -35 11 -68 18 -74 15
-7 -2 -4 -5 5 -5 9 -1 23 -10 31 -21 7 -10 26 -24 41 -30 15 -6 52 -26 81 -45
69 -46 163 -69 404 -100 515 -65 769 -69 1151 -19 299 39 710 150 763 205 10
11 25 19 35 19 9 0 35 11 57 25 22 13 52 25 66 25 19 0 35 11 54 36 15 20 40
40 56 46 36 12 38 28 4 28 -16 0 -25 6 -25 15 0 27 -150 165 -180 165 -8 0
-20 8 -27 18 -8 13 -20 18 -40 15 -36 -6 -83 12 -83 32 0 8 7 15 15 15 10 0
15 10 15 26 0 15 25 78 55 141 30 63 55 118 55 121 0 4 30 40 68 81 l67 74 75
-17 c178 -41 378 -108 387 -132 2 -7 11 -10 19 -7 16 6 118 -49 157 -85 32
-31 34 -48 7 -57 -11 -4 -18 -11 -14 -16 4 -6 13 -4 23 5 10 9 22 16 28 16 12
0 43 -75 44 -105 0 -20 1 -20 9 0 14 32 11 67 -7 112 -11 26 -25 43 -34 43 -9
0 -22 7 -29 15 -7 9 -42 32 -77 51 -34 20 -63 40 -63 45 0 5 -8 9 -18 9 -10 0
-64 16 -119 35 -55 19 -158 49 -228 67 -71 18 -130 38 -132 45 -3 7 14 32 36
56 l40 43 158 18 c87 9 245 31 352 47 202 30 241 34 241 22 0 -4 -15 -23 -33
-42 -17 -20 -7 -13 24 16 43 39 67 53 108 62 70 15 101 14 101 -3 0 -8 -36
-70 -81 -138 -45 -67 -72 -114 -60 -103 11 11 58 76 104 145 86 129 109 149
158 137 26 -7 139 -102 139 -118 0 -4 9 -23 21 -41 l21 -33 -6 38 c-3 27 -18
53 -46 83 -23 25 -40 50 -38 56 5 14 90 60 143 78 22 7 53 21 70 31 16 11 40
19 52 19 12 0 25 5 29 11 3 6 22 17 40 25 22 9 32 19 28 28 -6 15 179 266 195
266 15 0 31 -25 32 -49 1 -22 2 -20 9 9 5 20 5 39 -1 45 -16 16 -10 33 47 133
69 119 98 159 124 167 12 4 33 36 56 83 20 42 48 89 62 105 14 15 20 27 14 27
-19 0 -14 20 18 89 26 53 33 62 51 58 18 -5 20 -2 14 16 -16 52 -14 64 20 122
71 121 108 212 142 350 19 77 42 148 50 157 12 13 12 21 3 38 -14 27 -5 70 15
70 19 0 19 19 0 44 -8 10 -12 22 -10 27 3 4 10 53 15 109 6 56 22 166 36 243
13 78 29 173 35 212 6 38 16 79 22 90 36 67 -7 765 -49 788 -12 7 -14 18 -9
43 4 26 1 43 -14 67 -11 18 -31 65 -44 105 -14 40 -34 83 -45 95 -12 12 -35
62 -52 111 -18 49 -45 112 -60 140 -28 51 -100 234 -100 255 0 6 9 11 19 11
35 0 149 -237 206 -430 26 -89 49 -144 52 -133 7 20 -35 177 -97 363 -206 619
-527 1137 -1000 1611 -331 332 -688 587 -1099 785 -183 89 -286 128 -556 214
-50 16 -99 15 -125 -2 -28 -18 -125 -18 -170 0 -14 5 -63 13 -110 16 -47 4
-111 11 -144 16 -74 12 -102 0 -83 -33 6 -12 16 -25 20 -28 11 -8 -37 -39 -61
-39 -10 0 -27 6 -37 14 -13 9 -26 11 -36 6 -20 -11 -59 -2 -59 14 0 6 -5 3
-11 -6 -7 -13 -15 -15 -33 -8 -12 4 -60 5 -106 1 -77 -7 -83 -6 -96 15 -13 19
-21 21 -78 17 -58 -5 -65 -4 -75 16 -7 12 -8 27 -4 34 4 6 6 22 4 35 -1 12 2
22 8 22 6 0 10 6 9 13 -2 6 4 11 11 9 20 -4 61 18 61 33 0 7 -8 19 -18 28 -16
15 -42 17 -178 15 -87 -1 -179 -3 -204 -5z m269 -190 c-3 -94 -7 -102 -52
-114 -23 -6 -50 -20 -60 -30 -13 -14 -32 -19 -72 -19 -30 0 -66 -5 -81 -12
-22 -11 -28 -10 -40 6 -11 16 -23 18 -79 14 -36 -3 -68 -2 -71 3 -3 5 -17 0
-32 -10 -15 -11 -56 -27 -92 -36 -36 -9 -72 -20 -81 -25 -26 -13 -20 21 10 54
14 16 46 38 71 49 25 10 54 30 65 44 16 19 33 25 80 30 33 3 79 11 103 19 23
8 57 14 74 14 17 0 40 8 50 17 20 18 78 29 160 32 l48 1 -1 -37z m-1229 -32
c0 -14 -57 -34 -72 -25 -8 5 -3 12 17 20 36 16 55 17 55 5z m1329 -14 c8 -11
5 -19 -13 -36 -29 -28 -46 -20 -46 20 0 24 4 29 24 29 13 0 29 -6 35 -13z
m381 -37 c21 -21 19 -40 -4 -40 -18 0 -49 37 -41 49 9 16 23 13 45 -9z m-1840
0 c-20 -13 -63 -13 -55 0 3 6 21 10 38 10 24 0 28 -3 17 -10z m508 -142 c-5
-13 -118 -23 -118 -10 0 17 15 22 68 22 37 0 52 -4 50 -12z m79 4 c6 -4 15
-21 20 -39 l8 -32 53 19 c29 10 60 18 70 18 9 0 25 3 35 7 27 11 21 -15 -15
-70 -17 -26 -40 -50 -50 -53 -12 -3 -17 -10 -13 -22 3 -10 -7 -39 -23 -66 -16
-27 -41 -70 -56 -96 -15 -27 -32 -48 -37 -48 -6 0 -9 -7 -6 -15 4 -8 -12 -54
-35 -102 -22 -48 -49 -111 -59 -139 l-19 -51 -135 -6 c-135 -6 -165 -3 -165
14 0 6 29 71 65 145 46 97 70 137 85 141 15 4 19 11 14 25 -4 12 9 44 37 91
52 90 67 107 92 107 16 0 17 3 8 14 -10 12 -5 25 25 68 40 58 74 98 83 98 3 0
11 -4 18 -8z m-141 -55 c23 9 16 -16 -18 -63 -22 -31 -38 -44 -56 -44 -21 0
-24 4 -20 25 5 21 2 25 -21 25 -14 0 -33 5 -41 10 -13 9 -11 14 12 34 23 21
31 22 78 15 28 -4 58 -5 66 -2z m369 -26 c3 -6 -4 -15 -15 -21 -16 -8 -20 -8
-20 3 0 25 23 36 35 18z m-925 -85 c0 -11 -19 -15 -25 -6 -3 5 1 10 9 10 9 0
16 -2 16 -4z m1021 -26 c29 -19 51 -27 66 -24 12 3 54 0 93 -7 64 -11 72 -15
91 -48 16 -27 18 -39 10 -51 -6 -8 -15 -25 -20 -37 -6 -12 -18 -26 -28 -32
-15 -9 -13 -10 15 -11 24 0 32 -4 32 -18 0 -10 12 -22 30 -29 17 -6 30 -18 30
-26 0 -8 11 -22 25 -31 14 -9 25 -22 25 -30 0 -7 11 -25 25 -40 30 -32 35
-100 9 -110 -27 -10 -802 -7 -809 3 -11 19 95 269 121 284 7 4 11 14 8 21 -6
14 51 136 86 185 20 29 26 31 84 31 53 0 70 -5 107 -30z m285 10 c29 -19 33
-19 42 -5 6 12 20 15 53 13 l44 -3 0 -75 c0 -68 -2 -75 -21 -78 -13 -2 -42 15
-79 45 -32 26 -69 57 -83 69 -17 14 -23 27 -19 37 8 22 23 21 63 -3z m-830 -4
c6 -16 -99 -181 -122 -190 -8 -3 -13 -10 -9 -15 8 -14 -137 -300 -155 -306
-26 -7 -419 -10 -426 -2 -4 4 10 33 33 65 30 43 53 63 91 81 55 26 67 44 56
86 -6 24 -7 25 -25 9 -16 -14 -21 -15 -48 -1 -28 14 -32 14 -58 -6 -16 -12
-29 -25 -31 -29 -2 -5 -9 -8 -16 -8 -7 0 -23 -11 -36 -25 l-23 -25 56 0 c67 0
72 -11 30 -68 -70 -96 -62 -92 -205 -92 -107 0 -128 2 -128 15 0 8 -9 15 -21
15 -29 0 -59 18 -59 36 0 8 6 32 12 54 10 31 20 42 51 54 32 13 37 18 32 38
-4 17 0 30 15 43 18 17 42 21 134 25 94 5 120 10 168 33 58 27 112 35 123 17
4 -6 13 -5 25 2 14 9 22 10 31 1 7 -7 19 -8 38 0 19 7 44 7 78 0 28 -5 70 -6
94 -3 l44 7 -49 2 c-76 2 -108 45 -72 97 12 16 27 21 76 22 36 1 70 8 83 17
12 8 35 15 52 15 16 0 48 11 70 25 45 27 83 32 91 11z m-480 -16 c8 -8 19 -7
38 1 23 11 29 10 37 -2 13 -20 11 -26 -10 -46 -13 -13 -17 -27 -14 -50 3 -18
9 -33 14 -33 5 0 9 -7 9 -15 0 -17 -26 -20 -35 -5 -5 8 -11 7 -21 -1 -7 -6
-21 -9 -30 -5 -13 5 -12 10 7 37 l22 32 -21 18 c-12 9 -22 22 -22 28 0 5 -7
14 -16 19 -9 5 -14 14 -10 21 9 14 39 14 52 1z m1784 -54 c84 -1 86 -1 165
-52 53 -34 81 -58 83 -72 3 -17 10 -22 32 -22 33 0 80 -19 80 -32 0 -9 -57
-68 -66 -68 -3 0 -18 7 -34 15 -25 13 -30 13 -44 0 -8 -8 -30 -15 -49 -15
l-34 0 -2 -85 c0 -61 3 -85 12 -86 6 -1 1 -5 -13 -9 -42 -13 -354 -12 -368 2
-8 8 -12 53 -12 138 0 85 4 130 12 138 8 8 8 12 1 12 -6 0 -13 8 -15 18 -7 27
7 107 18 105 6 -1 28 5 50 12 22 8 52 12 69 8 17 -3 68 -6 115 -7z m-1864 -21
c-22 -16 -46 -20 -46 -7 0 15 13 22 39 22 25 -1 25 -1 7 -15z m-482 -218 c-4
-12 -123 -69 -178 -85 -21 -6 50 50 89 70 38 20 87 37 93 33 1 -1 0 -9 -4 -18z
m2578 -94 c26 -45 32 -92 14 -99 -36 -14 -63 4 -75 50 -6 25 -8 52 -5 60 10
26 48 19 66 -11z m-2647 -103 c6 -10 -34 -30 -61 -30 -17 0 -19 26 -1 33 21 9
56 7 62 -3z m2073 -84 c2 -38 0 -76 -3 -85 -4 -9 -6 -122 -5 -251 0 -130 -2
-244 -6 -253 -6 -16 -45 -17 -504 -17 -275 0 -501 4 -504 9 -6 9 58 272 99
406 18 59 31 85 42 85 12 0 13 3 5 13 -18 21 23 146 51 157 12 5 202 8 422 7
l400 -2 3 -69z m630 57 c13 -8 31 -22 40 -32 9 -10 37 -39 62 -65 37 -38 42
-48 30 -56 -11 -7 -7 -10 18 -10 19 0 40 -8 52 -20 51 -51 113 -73 137 -49 16
16 103 -38 121 -74 19 -38 93 -337 87 -348 -10 -15 -99 -10 -122 6 -13 9 -52
18 -89 20 -37 2 -68 6 -68 7 -25 42 -40 56 -63 61 -36 7 -101 58 -125 98 -10
17 -22 47 -26 67 -9 41 -23 50 -46 27 -23 -24 -20 -47 14 -90 17 -21 30 -48
30 -61 0 -12 5 -26 10 -29 6 -3 10 -17 10 -30 0 -19 11 -29 52 -48 l53 -25
-35 -6 c-19 -4 -177 -5 -350 -4 l-315 3 -3 239 c-2 167 1 243 9 252 7 8 7 14
2 14 -16 0 -26 140 -12 157 18 21 494 18 527 -4z m-1892 -8 c9 -22 -38 -127
-59 -133 -12 -3 -16 -10 -12 -23 4 -11 -22 -98 -63 -212 -38 -105 -76 -212
-83 -237 -12 -37 -19 -46 -44 -51 -16 -4 -139 -7 -273 -8 -211 -1 -243 1 -249
15 -7 18 82 212 169 369 70 128 84 145 112 146 12 0 15 3 9 6 -21 8 -14 36 22
85 l35 47 92 4 c264 9 338 7 344 -8z m374 2 c0 -7 -9 -41 -21 -75 -14 -42 -27
-63 -41 -68 -15 -4 -17 -8 -8 -14 15 -9 13 -19 -33 -175 -19 -66 -42 -149 -51
-185 -9 -36 -21 -82 -27 -102 l-10 -38 -164 0 c-155 0 -165 1 -165 19 0 58
135 447 166 478 14 13 18 23 11 26 -12 4 23 105 46 135 14 18 297 17 297 -1z
m-853 -13 c2 -6 -11 -33 -29 -60 l-33 -49 -100 -5 -100 -6 85 -4 c102 -6 102
-7 40 -110 -23 -39 -81 -148 -129 -243 l-86 -172 -235 -3 c-129 -1 -240 0
-248 3 -9 3 -4 21 19 67 40 80 173 302 236 393 l48 70 95 6 95 5 -77 2 c-70 2
-78 4 -78 21 0 13 19 30 58 52 50 29 69 34 157 39 148 10 278 7 282 -6z m-487
-16 c-1 -21 -54 -77 -75 -78 -11 -1 -39 -2 -63 -1 -36 1 -43 4 -40 18 7 38
179 96 178 61z m-90 -98 c12 -7 4 -25 -47 -99 -54 -77 -96 -146 -247 -398
l-25 -43 -99 0 c-54 0 -101 3 -105 6 -12 12 86 174 207 342 21 28 36 52 33 52
-8 0 -153 -204 -220 -309 l-58 -91 -80 0 c-68 0 -80 2 -77 16 2 8 16 23 33 32
16 9 36 25 43 35 7 9 20 17 28 17 8 0 22 17 30 38 34 82 59 128 81 150 27 25
42 30 23 7 -7 -8 -9 -15 -5 -15 6 0 25 17 117 106 24 23 56 49 71 59 29 18 49
13 29 -7 -7 -7 -12 -16 -12 -21 0 -11 73 49 122 101 28 29 38 32 87 32 31 0
63 -5 71 -10z m3528 -262 c15 -15 15 -45 0 -54 -13 -8 -38 22 -38 48 0 21 20
24 38 6z m207 -67 c21 -42 57 -179 50 -191 -3 -5 -32 -10 -64 -10 -50 0 -61 4
-84 28 -15 15 -27 38 -27 50 0 12 -6 31 -12 42 -11 18 -9 23 16 43 17 14 26
28 22 35 -4 8 2 16 16 21 43 18 67 13 83 -18z m145 -41 c0 -11 -7 -20 -15 -20
-8 0 -15 9 -15 20 0 11 7 20 15 20 8 0 15 -9 15 -20z m-4235 -230 c3 -5 -12
-44 -34 -87 -41 -83 -151 -340 -195 -459 l-27 -71 -67 -7 c-37 -3 -88 -6 -114
-6 -42 0 -48 3 -48 21 0 44 134 360 222 527 l50 92 103 0 c57 0 106 -4 110
-10z m548 4 c3 -4 -8 -43 -24 -88 -52 -137 -107 -305 -135 -405 -15 -53 -32
-101 -38 -107 -14 -15 -542 -29 -550 -15 -13 21 204 556 246 609 8 9 71 12
253 12 133 0 244 -3 248 -6z m601 -3 c3 -5 -16 -91 -42 -192 -27 -101 -59
-232 -72 -291 -17 -75 -29 -109 -39 -112 -26 -8 -589 -11 -596 -4 -16 15 153
551 188 596 11 14 552 18 561 3z m422 -4 c2 -7 -3 -49 -11 -92 -25 -130 -45
-242 -65 -369 -11 -65 -20 -120 -22 -121 -2 -1 -83 -5 -181 -9 -207 -8 -197
-14 -177 97 18 101 107 464 120 487 10 19 22 20 171 20 121 0 161 -3 165 -13z
m1080 2 c13 -21 4 -573 -9 -581 -7 -4 -257 -7 -557 -5 l-545 2 1 40 c1 89 77
519 95 541 9 12 98 14 510 14 361 0 500 -3 505 -11z m1071 0 c7 -7 17 -8 29
-1 24 12 44 5 45 -16 1 -22 32 -75 46 -79 6 -2 15 11 19 29 l7 33 13 -30 c19
-46 47 -212 40 -239 -6 -23 -56 -50 -111 -58 -13 -2 -25 -18 -36 -48 -11 -30
-27 -51 -48 -63 -22 -14 -35 -32 -45 -65 l-13 -47 -439 0 -439 0 -8 284 c-6
209 -5 287 4 297 9 12 90 14 468 14 317 0 460 -3 468 -11z m291 -28 c2 -18 -1
-38 -7 -44 -16 -16 -13 -64 5 -92 12 -18 13 -28 4 -44 -11 -22 -25 -27 -34
-12 -11 18 -46 206 -41 219 3 8 17 12 37 10 29 -3 33 -7 36 -37z m2370 -544
c23 -35 42 -67 42 -71 0 -4 -10 -6 -22 -4 -15 2 -29 16 -41 41 -9 20 -22 37
-28 37 -17 0 -48 43 -49 67 0 20 2 21 28 8 15 -8 47 -43 70 -78z m-4929 -46
c11 -7 12 -22 7 -66 -3 -32 -9 -62 -12 -66 -6 -10 -333 -12 -358 -3 -17 6 -20
57 -7 104 7 24 10 25 111 31 178 9 244 9 259 0z m1196 -66 l0 -70 -565 0 -565
0 1 57 c1 32 7 65 14 73 11 13 80 15 564 13 l551 -3 0 -70z m989 66 c3 -5 -3
-19 -13 -32 -10 -13 -28 -43 -40 -66 l-21 -43 -390 0 -390 0 0 68 c0 38 3 72
7 75 10 10 841 8 847 -2z m-2647 -56 c-3 -30 -8 -59 -12 -65 -7 -11 -571 -15
-599 -4 -19 7 -20 25 -6 76 l11 37 97 4 c53 1 191 4 306 5 l209 2 -6 -55z
m-655 7 c-5 -73 -4 -72 -191 -72 -92 0 -216 3 -275 7 l-108 6 6 35 c3 19 8 37
11 41 8 7 266 18 435 17 l125 -1 -3 -33z m-612 4 c0 -8 -5 -27 -10 -42 l-11
-27 -107 7 c-59 4 -111 11 -116 16 -5 5 -2 19 8 34 16 25 20 26 126 26 89 0
110 -3 110 -14z m-270 -15 c0 -37 -22 -43 -139 -35 -73 4 -115 11 -122 20 -18
22 22 30 169 33 84 1 92 -1 92 -18z m141 -81 c63 0 81 -3 86 -16 3 -8 -13 -81
-36 -162 -23 -81 -52 -196 -65 -256 -14 -60 -31 -115 -38 -121 -17 -16 -204
-30 -212 -16 -4 6 2 58 14 116 15 78 27 116 46 141 25 32 30 34 85 34 56 0 78
13 44 27 -9 3 -23 19 -31 35 -10 18 -25 31 -44 35 -36 7 -38 21 -9 106 21 64
43 91 67 82 8 -3 49 -5 93 -5z m554 -16 c103 -5 111 -7 129 -32 20 -25 20 -27
-7 -191 -15 -91 -30 -186 -33 -211 -12 -81 6 -75 -281 -90 -142 -8 -278 -15
-303 -15 l-45 0 3 35 c6 86 115 490 135 505 14 10 205 10 402 -1z m590 -11
l227 -6 -6 -51 c-15 -114 -63 -406 -68 -412 -6 -5 -410 -23 -544 -24 -49 0
-73 4 -76 13 -8 23 62 452 78 479 6 10 90 10 389 1z m693 -12 c11 -6 10 -46
-5 -215 -9 -114 -22 -214 -28 -221 -7 -10 -59 -14 -205 -17 l-195 -3 2 58 c2
60 50 384 59 399 7 10 355 10 372 -1z m1218 -25 c9 -39 0 -394 -11 -405 -6 -5
-242 -10 -585 -12 l-575 -4 -3 51 c-3 59 23 368 33 384 4 7 189 10 570 10
l565 0 6 -24z m869 -19 c1 -31 8 -44 38 -72 40 -37 43 -45 25 -75 -10 -16 -10
-24 0 -38 26 -37 36 -69 36 -123 1 -95 28 -89 -408 -89 -329 0 -385 2 -404 16
-21 15 -22 20 -22 213 0 109 3 201 7 204 4 4 169 6 367 5 l361 -3 0 -38z
m-877 -629 l2 -208 -527 0 c-291 0 -558 3 -595 7 l-68 6 1 121 c1 67 4 155 8
196 l6 75 190 5 c105 3 368 6 585 5 l395 0 3 -207z m934 201 c26 -14 19 -56
-17 -104 -17 -21 -22 -36 -15 -40 29 -18 47 -80 42 -148 -3 -54 -1 -72 12 -86
10 -11 13 -21 9 -24 -13 -8 -799 -11 -812 -3 -12 8 -17 397 -4 409 12 12 762
8 785 -4z m-2180 -184 c-2 -99 -6 -189 -9 -199 -5 -18 -15 -19 -215 -13 -115
3 -212 8 -216 11 -6 7 16 283 27 338 l7 33 139 6 c77 3 169 5 205 5 l65 -1 -3
-180z m-509 125 c-9 -118 -33 -314 -40 -321 -14 -14 -585 10 -600 24 -10 10
-10 40 -3 132 14 165 18 185 38 186 108 8 337 16 457 15 l150 -1 -2 -35z
m-669 12 c4 -7 -7 -157 -21 -271 l-5 -44 -166 7 c-239 10 -456 26 -465 36 -12
11 29 231 45 241 7 5 36 9 63 10 28 0 140 7 250 14 256 16 293 17 299 7z
m-681 -45 c2 -7 -4 -61 -15 -121 l-21 -108 -66 6 c-36 3 -81 6 -99 6 -21 0
-35 6 -39 16 -8 21 14 175 27 188 8 8 91 19 181 25 15 0 29 -5 32 -12z m-253
-28 c0 -4 -5 -42 -11 -84 -10 -63 -16 -78 -33 -87 -22 -9 -318 22 -361 38 -14
6 -16 15 -12 47 3 22 11 43 18 48 17 10 113 26 259 43 114 12 140 12 140 -5z
m-470 -86 c0 -23 -3 -25 -32 -19 -50 10 -55 23 -17 39 41 17 49 14 49 -20z
m190 -101 c127 -20 121 -14 102 -97 -8 -38 -68 -135 -83 -135 -4 0 -14 19 -21
42 -20 58 -40 69 -73 38 -37 -35 -56 -18 -73 61 -15 73 -9 109 16 109 9 -1 69
-9 132 -18z m485 -77 c0 -26 -59 -35 -69 -10 -9 26 3 36 37 33 24 -2 32 -8 32
-23z m395 -1 c157 -8 291 -17 298 -20 11 -3 12 -33 7 -152 -4 -81 -10 -150
-14 -154 -3 -4 -47 -10 -97 -14 -90 -7 -92 -6 -99 17 -4 12 -29 46 -55 73 -26
28 -58 69 -72 91 -14 22 -43 49 -64 60 -21 12 -45 33 -52 48 -16 33 -20 33
-89 1 -67 -32 -103 -24 -103 24 0 50 -33 47 340 26z m889 -41 l74 -6 -6 -115
c-4 -64 -10 -119 -15 -124 -10 -10 -565 -43 -587 -35 -17 7 -20 85 -8 222 l6
77 231 -6 c127 -4 264 -9 305 -13z m599 -18 c14 -5 18 -200 3 -209 -5 -3 -107
-9 -226 -13 l-218 -6 6 111 c3 61 9 116 12 122 5 8 70 9 208 5 111 -4 208 -8
215 -10z m1250 -11 c22 -4 23 -8 20 -92 l-3 -87 -455 -7 c-250 -3 -515 -8
-588 -11 -126 -5 -133 -4 -143 15 -11 21 -8 165 3 184 6 9 1122 8 1166 -2z
m1160 -34 c23 -19 55 -46 72 -59 32 -24 69 -86 58 -96 -3 -4 -257 -3 -564 2
l-559 8 -3 80 c-2 67 0 82 15 93 14 10 111 12 479 10 l461 -3 41 -35z m-1143
-505 l0 -320 -265 -7 c-146 -4 -404 -12 -575 -17 -170 -5 -314 -5 -319 0 -18
16 -38 630 -21 647 10 10 395 18 815 18 l365 -1 0 -320z m1260 309 c16 -6 15
-9 -6 -25 -13 -10 -30 -19 -36 -19 -14 0 -14 0 -17 -51 -3 -34 -48 -109 -67
-109 -4 0 -35 27 -68 60 l-59 61 -54 -24 c-29 -13 -66 -27 -83 -31 -27 -7 -70
-24 -185 -74 -50 -21 -84 -50 -90 -75 -4 -14 -24 -31 -53 -45 -49 -25 -57 -36
-32 -46 8 -3 15 -12 15 -20 0 -18 -53 -87 -110 -142 l-45 -44 38 0 c52 0 70
12 116 73 61 83 132 96 160 28 13 -31 42 -46 104 -55 33 -4 39 -2 53 25 22 43
56 56 89 35 14 -10 38 -16 53 -14 l27 3 -32 32 c-40 38 -41 65 -5 118 29 42
111 94 149 95 12 0 25 5 28 10 12 20 66 42 78 31 9 -7 16 -2 24 15 10 22 9 26
-13 36 -34 16 -31 38 6 38 16 0 46 11 66 25 40 28 56 30 85 15 25 -14 28 -97
4 -106 -14 -6 -14 -8 1 -18 14 -11 15 -33 5 -231 -6 -121 -15 -223 -19 -227
-6 -6 -147 -4 -982 20 l-255 7 -3 310 c-1 170 0 316 3 324 5 12 84 13 549 8
299 -4 551 -10 561 -13z m-2512 -71 c4 -38 7 -124 8 -193 0 -69 4 -181 8 -250
4 -69 6 -131 3 -138 -4 -11 -38 -13 -176 -8 -94 4 -204 9 -245 12 l-74 6 5
300 c4 207 9 303 17 311 12 12 144 21 352 25 l96 2 6 -67z m-566 35 c6 -8 6
-79 2 -178 -4 -91 -8 -222 -8 -292 -1 -142 -1 -143 -75 -130 -34 6 -41 12 -52
44 -26 75 -61 122 -111 147 -68 35 -82 49 -89 90 -10 62 -15 71 -45 86 -16 9
-44 29 -63 45 -19 17 -58 43 -88 59 -33 18 -56 38 -62 54 -18 49 -5 53 237 66
122 7 233 13 247 15 62 7 98 5 107 -6z m-639 -56 c4 -27 -22 -51 -54 -52 -25
0 -89 40 -86 55 2 12 55 23 102 21 29 -1 36 -5 38 -24z m5088 -34 c-5 -28 -18
-54 -37 -74 -28 -29 -30 -37 -32 -110 -2 -71 0 -79 18 -82 48 -9 50 -24 29
-174 -7 -47 14 -43 -368 -64 -324 -17 -316 -18 -316 37 0 14 5 30 12 37 9 9 9
15 0 24 -8 8 -12 56 -12 150 0 157 -5 148 91 162 40 6 52 3 84 -19 36 -24 39
-24 56 -9 13 12 28 15 49 10 19 -3 46 0 67 9 19 8 43 15 52 15 10 0 27 14 39
30 13 17 32 30 44 30 12 0 31 9 42 19 12 11 53 26 91 34 103 22 99 23 91 -25z
m-1085 -45 c8 -9 13 -25 11 -35 -3 -16 1 -18 23 -12 17 4 32 1 43 -9 9 -8 46
-29 80 -47 56 -27 68 -30 95 -21 16 6 32 9 35 7 11 -12 14 -223 3 -244 -7 -13
-8 -23 -1 -27 5 -3 10 -22 10 -40 0 -45 -21 -56 -112 -54 -40 1 -114 -2 -164
-6 -63 -5 -93 -4 -98 4 -7 10 11 463 19 489 6 17 40 15 56 -5z m1436 -85 c60
-63 63 -73 51 -153 -6 -39 -10 -86 -9 -107 0 -20 -6 -41 -14 -48 -14 -12 -323
-42 -339 -33 -13 8 4 254 20 283 7 14 25 38 39 55 22 26 27 28 45 17 27 -16
57 -14 110 8 25 10 47 19 50 19 3 1 24 -18 47 -41z m11 -415 c1 -27 3 -64 4
-83 l3 -34 -40 3 c-22 1 -101 10 -175 19 l-135 17 -3 41 c-2 25 2 45 10 51 12
10 177 28 289 32 l45 1 2 -47z m-400 -18 c5 -57 6 -57 -237 -35 -123 11 -226
22 -229 25 -3 3 -2 8 1 11 7 8 359 33 422 30 37 -1 40 -3 43 -31z m-3871 -21
l52 -7 6 -41 c3 -22 6 -70 8 -106 l2 -65 -58 -9 c-61 -9 -74 -7 -203 35 -33
11 -67 17 -76 14 -25 -10 -57 12 -73 51 -10 25 -22 36 -44 40 -36 8 -64 36
-59 61 2 13 15 20 48 24 63 8 334 10 397 3z m3113 -10 c14 -14 -4 -512 -19
-527 -5 -5 -21 -2 -40 8 -39 20 -74 93 -72 148 2 34 0 37 -25 37 -17 0 -28 6
-31 20 -3 11 -12 20 -19 20 -8 0 -14 3 -15 8 0 4 -2 18 -3 31 -2 13 -10 29
-19 36 -10 7 -17 16 -17 22 0 13 -56 53 -73 53 -8 0 -20 -7 -27 -15 -24 -29
-32 -4 -25 74 4 53 12 80 23 89 22 17 345 13 362 -4z m-2075 -13 l240 -6 3
-281 2 -281 -31 -7 c-55 -11 -419 -7 -419 4 0 7 -6 7 -18 1 -9 -5 -75 -11
-146 -13 l-129 -3 -26 75 c-15 41 -30 80 -34 86 -3 6 -34 14 -67 17 -67 7
-114 31 -195 97 -27 23 -58 48 -67 55 -10 8 -18 29 -19 47 0 18 -4 71 -8 118
-5 47 -6 91 -4 97 5 13 283 11 918 -6z m1625 -20 c0 -22 -3 -46 -6 -55 -7 -20
-24 -21 -24 -2 0 21 -47 66 -69 66 -21 0 -35 13 -24 24 3 3 33 6 65 6 l58 0 0
-39z m920 8 c166 -13 260 -25 268 -33 11 -10 9 -35 -8 -137 -37 -214 -95 -484
-110 -508 -6 -11 -33 -11 -161 3 -85 9 -180 19 -213 23 -52 5 -65 11 -118 57
l-59 51 5 65 c3 36 8 160 12 275 4 150 10 213 19 220 14 12 21 12 365 -16z
m-1612 13 c9 -6 10 -21 2 -61 -12 -65 -16 -71 -44 -71 -30 0 -42 -16 -52 -65
-4 -22 -15 -56 -25 -75 -11 -19 -19 -44 -19 -56 0 -38 -21 -83 -42 -90 -41
-13 -95 -59 -114 -98 -10 -22 -25 -45 -32 -53 -14 -14 -133 -18 -191 -7 l-31
7 2 281 3 281 160 5 c275 10 370 10 383 2z m382 -1 c0 -4 -5 -12 -12 -19 -9
-9 -8 -16 4 -29 9 -10 17 -29 17 -43 1 -14 3 -38 4 -55 2 -26 -5 -35 -53 -68
-30 -21 -73 -47 -95 -57 -22 -11 -53 -30 -68 -42 -32 -26 -53 -19 -76 28 -18
35 -32 263 -17 282 7 10 45 13 153 11 78 -1 143 -5 143 -8z m1775 -66 c202
-23 204 -24 245 -92 46 -75 51 -89 56 -143 2 -25 8 -61 13 -80 27 -100 30
-134 14 -168 -13 -27 -14 -42 -4 -89 6 -32 7 -61 3 -65 -5 -5 -89 -19 -186
-31 l-177 -21 -145 20 c-80 12 -150 26 -155 31 -7 7 -2 44 15 109 25 102 79
370 92 459 12 85 19 97 56 91 18 -3 96 -13 173 -21z m-2845 -675 c0 -136 -1
-140 -22 -145 -30 -7 -873 11 -886 19 -6 4 19 37 58 77 48 49 75 86 88 122
l20 52 98 6 c55 3 222 6 372 7 l272 2 0 -140z m304 124 c6 -16 -29 -84 -43
-84 -4 0 -22 -20 -39 -45 -24 -34 -32 -56 -32 -89 0 -47 -20 -67 -46 -45 -15
13 -18 97 -7 212 l6 67 77 0 c62 0 79 -3 84 -16z m1964 -90 c81 -9 152 -21
159 -28 10 -9 10 -16 0 -36 -12 -24 -19 -26 -152 -37 -77 -6 -166 -12 -197
-12 l-58 -1 0 49 c0 27 3 56 6 65 8 21 54 21 242 0z m345 -53 c11 -11 -4 -15
-80 -25 -44 -6 -59 3 -49 31 5 13 17 15 63 10 31 -3 60 -10 66 -16z m552 -1
c9 -15 -22 -60 -38 -55 -6 2 -38 9 -70 15 -64 13 -72 31 -16 41 57 10 117 10
124 -1z m-189 -51 c60 -11 116 -24 124 -29 11 -7 8 -21 -17 -72 -17 -35 -34
-74 -38 -88 -4 -14 -18 -45 -30 -70 -12 -25 -30 -76 -40 -113 -15 -57 -16 -78
-7 -120 15 -71 22 -206 11 -212 -5 -3 -59 7 -121 24 -124 33 -303 71 -443 96
-141 24 -138 23 -132 48 3 12 27 81 55 154 28 72 67 183 87 247 42 134 21 120
210 140 184 19 216 19 341 -5z m-574 -53 c-6 -57 -150 -468 -172 -490 -9 -9
-350 30 -388 45 -22 9 -23 13 -17 60 6 46 40 138 65 179 70 113 81 136 76 154
-10 42 6 48 151 62 299 28 289 28 285 -10z m-2408 -66 c9 -9 14 -275 5 -284
-3 -3 -163 -10 -355 -16 -192 -5 -415 -13 -496 -16 l-146 -7 -10 39 c-6 21
-16 74 -23 117 -11 73 -11 79 8 100 11 12 29 37 39 55 l19 33 475 -7 c261 -4
479 -10 484 -14z m184 -81 c16 -94 30 -138 53 -168 29 -37 24 -42 -38 -39
l-58 3 -3 129 c-1 72 0 136 3 144 12 31 31 1 43 -69z m1020 -135 c18 -5 22
-13 22 -44 0 -60 -17 -69 -107 -63 -99 6 -105 8 -101 35 3 23 24 36 98 61 55
18 59 18 88 11z m-2269 -46 c0 -28 -2 -30 -9 -13 -12 28 -12 45 0 45 6 0 10
-15 9 -32z m2426 -6 c31 -5 95 -48 95 -63 0 -10 -123 -12 -157 -3 -25 7 -28
20 -13 59 8 20 15 25 28 20 9 -4 31 -10 47 -13z m-480 -32 c-5 -8 -11 -8 -17
-2 -6 6 -7 16 -3 22 5 8 11 8 17 2 6 -6 7 -16 3 -22z m-877 -22 c9 -9 12 -77
12 -245 l0 -233 -286 0 -286 0 -32 33 c-27 27 -36 30 -54 22 -12 -5 -25 -18
-28 -27 -5 -16 -18 -18 -102 -18 -53 0 -103 4 -109 8 -13 8 -55 167 -89 335
-15 72 -16 90 -5 96 15 10 219 21 551 31 390 11 415 11 428 -2z m259 4 c15
-10 42 -80 57 -152 11 -53 13 -55 54 -65 23 -5 49 -20 57 -32 21 -30 46 -29
75 2 l24 25 27 -26 c25 -24 32 -25 56 -16 15 6 42 14 59 17 38 7 58 28 73 77
7 21 25 47 41 58 15 11 31 31 34 45 4 14 13 25 22 25 8 0 17 7 20 15 9 22 40
18 64 -7 20 -21 22 -22 31 -5 8 14 24 17 102 16 128 -1 143 -7 139 -50 -4 -59
-83 -369 -98 -383 -10 -11 -82 -15 -309 -21 -163 -4 -299 -5 -302 -1 -4 4 -2
20 4 35 l10 29 -46 -1 c-25 0 -53 1 -61 4 -11 3 -15 -5 -15 -31 l0 -35 -104
-8 c-67 -6 -112 -5 -127 1 l-22 11 5 233 c4 158 9 235 17 240 15 10 98 10 113
0z m-1254 -240 c26 -108 48 -203 47 -209 0 -14 -125 -17 -194 -5 -67 12 -69
36 -13 127 34 55 40 73 38 110 -2 30 3 46 18 59 15 13 18 26 14 50 -6 38 11
78 30 70 7 -2 34 -92 60 -202z m2467 187 l134 -13 42 -38 c23 -21 49 -38 59
-38 16 0 17 -7 11 -57 -4 -32 -14 -96 -24 -143 -17 -84 -17 -84 -52 -91 -68
-14 -463 -30 -473 -20 -12 12 87 401 105 412 6 4 24 6 38 4 14 -2 86 -9 160
-16z m535 -54 c184 -24 196 -27 202 -42 7 -17 -82 -223 -103 -239 -16 -13
-331 -41 -341 -30 -7 6 0 54 34 239 l16 87 41 0 c22 0 91 -7 151 -15z m421
-65 c141 -26 333 -68 396 -86 102 -31 62 -42 -332 -93 -279 -37 -330 -40 -330
-22 0 4 22 56 50 115 58 123 43 118 216 86z m544 -150 c0 -41 -101 -205 -251
-405 -134 -180 -120 -170 -210 -140 -98 34 -271 80 -394 105 -128 26 -135 28
-135 46 0 12 28 66 127 239 33 60 17 55 314 90 119 14 276 37 350 49 152 27
199 31 199 16z m-890 -120 c0 -14 -41 -95 -98 -197 -31 -54 -53 -83 -64 -83
-36 0 -203 32 -212 41 -9 8 27 206 40 218 7 7 206 28 282 30 30 0 52 -3 52 -9z
m-427 -75 c-2 -27 -8 -72 -15 -100 l-13 -50 -70 2 c-92 3 -434 39 -441 46 -8
8 18 106 31 117 6 5 107 14 225 20 118 6 220 13 225 15 6 2 21 3 35 2 23 -2
25 -5 23 -52z m-2591 19 c13 -8 40 -106 31 -115 -5 -5 -81 -16 -168 -24 -88
-8 -218 -22 -289 -31 -70 -9 -132 -12 -136 -7 -5 4 -15 34 -23 66 l-15 57 43
30 c39 27 52 30 141 33 106 4 405 -2 416 -9z m326 -32 c15 -16 35 -31 45 -35
10 -4 17 -13 15 -20 -5 -14 -90 -24 -216 -26 l-83 -1 -15 35 c-30 74 -29 75
107 75 120 0 121 0 147 -28z m1692 11 c0 -33 -20 -91 -33 -96 -7 -3 -62 -1
-123 3 -60 5 -228 11 -374 14 l-265 5 240 -9 c299 -11 505 -26 516 -37 12 -12
-109 -380 -163 -499 l-12 -27 -91 6 c-49 4 -214 11 -365 17 -151 6 -280 13
-287 15 -9 3 -10 68 -6 257 4 216 7 255 21 266 9 6 45 13 81 14 l66 2 -80 5
c-77 6 -80 7 -80 31 0 23 4 25 60 31 33 4 177 7 319 8 143 0 261 3 264 6 3 3
74 5 159 5 139 0 153 -2 153 -17z m-1092 1 c18 -5 22 -13 20 -33 -3 -23 -9
-27 -48 -32 -41 -6 -42 -6 -10 -8 19 -1 40 -5 47 -9 8 -5 14 -87 19 -264 6
-216 5 -258 -7 -262 -8 -3 -131 -10 -274 -16 -143 -5 -292 -13 -332 -16 l-71
-7 -17 33 c-24 47 -155 447 -155 475 0 30 8 32 170 40 l135 6 39 -40 c43 -45
58 -49 105 -25 25 13 30 19 20 30 -6 7 -9 20 -6 29 5 12 34 15 149 18 l143 3
-169 2 c-161 2 -170 3 -217 29 -90 49 -75 53 194 53 133 0 252 -3 265 -6z
m-1588 -105 c16 -60 11 -72 -38 -82 -76 -15 -95 26 -41 88 42 48 65 46 79 -6z
m4446 -7 c-21 -59 -133 -277 -149 -291 -13 -10 -21 -9 -46 4 -17 8 -31 22 -31
30 0 7 24 42 53 77 29 35 78 98 110 141 32 42 62 77 67 77 5 0 3 -17 -4 -38z
m58 -14 c9 -33 7 -83 -3 -131 -6 -23 -13 -58 -16 -79 -8 -54 -67 -108 -118
-108 -23 0 -40 5 -43 14 -6 15 153 326 166 326 4 0 10 -10 14 -22z m-3796 0
c5 -7 26 -65 47 -128 20 -63 59 -175 87 -249 39 -103 47 -135 37 -141 -7 -5
-54 -12 -105 -15 -106 -8 -521 20 -540 36 -13 11 -51 126 -103 314 -24 87 -28
112 -18 122 11 11 222 40 452 62 130 12 132 12 143 -1z m2326 -24 c191 -22
180 -17 173 -67 -7 -51 -82 -324 -103 -377 -19 -46 -16 -46 -258 -61 -178 -11
-321 -6 -332 12 -3 5 19 71 49 147 30 75 71 186 91 246 21 60 40 114 43 119 7
11 145 4 337 -19z m394 -55 c41 -7 76 -18 79 -25 6 -15 -40 -93 -139 -241 -95
-140 -108 -153 -157 -153 -22 0 -42 4 -45 8 -3 5 13 64 35 133 22 68 49 160
60 204 22 86 31 97 69 91 14 -3 58 -10 98 -17z m-3410 -1 c5 -7 28 -74 51
-148 22 -74 47 -156 55 -182 31 -98 -14 -55 -127 119 -64 100 -75 124 -79 168
-3 37 -1 40 27 46 48 11 62 10 73 -3z m3782 -73 c154 -38 326 -89 349 -104 20
-13 6 -42 -42 -89 l-43 -42 -189 -30 c-170 -26 -514 -70 -551 -70 -22 0 -16
24 15 64 17 21 72 101 123 178 l93 140 50 -6 c27 -3 115 -22 195 -41z m-3852
-95 c15 -22 55 -81 90 -130 34 -49 62 -93 62 -99 0 -14 -34 -14 -158 -1 -166
17 -162 16 -162 54 0 26 7 39 34 60 21 16 37 38 41 58 12 56 33 98 50 98 8 0
28 -18 43 -40z m4292 -45 c58 -30 31 -60 -64 -71 -67 -8 -72 3 -24 53 36 37
47 39 88 18z m-4275 -204 l170 -19 28 -33 c15 -18 27 -41 27 -50 0 -20 3 -19
-140 -53 -58 -13 -153 -41 -212 -60 -59 -20 -116 -36 -127 -36 -12 0 -21 -4
-21 -10 0 -5 -24 -22 -52 -36 -29 -14 -75 -42 -102 -61 -40 -29 -50 -33 -57
-20 -5 8 -29 36 -54 62 -25 27 -45 52 -45 57 0 13 28 9 61 -8 17 -8 37 -13 45
-10 13 5 12 9 -2 31 -28 43 -14 55 70 55 68 0 74 2 80 23 10 37 7 46 -20 69
-19 17 -24 28 -19 48 9 35 23 41 75 35 38 -5 49 -3 64 14 23 25 19 25 231 2z
m1639 -14 c10 -7 16 -22 14 -33 -3 -18 -13 -19 -268 -17 -277 3 -374 9 -365
23 7 12 128 22 360 30 110 4 209 7 221 8 11 1 28 -4 38 -11z m610 -7 c153 -9
203 -23 124 -33 -24 -4 -172 -9 -329 -13 l-287 -7 -7 23 c-17 54 42 57 499 30z
m1011 -9 c8 -14 -54 -81 -74 -81 -10 0 -20 3 -24 6 -9 9 12 57 30 72 20 14 59
16 68 3z m-2772 -17 c15 -3 27 -9 27 -14 0 -10 -22 -15 -128 -31 -91 -14 -102
-10 -102 39 0 24 1 24 88 17 48 -3 99 -9 115 -11z m2614 5 c6 -6 8 -19 6 -30
-6 -22 -52 -25 -133 -8 -83 18 -64 29 70 42 19 2 37 5 41 5 3 1 10 -3 16 -9z
m-2154 -36 c5 -3 39 -70 77 -149 38 -79 81 -162 95 -185 15 -22 28 -52 29 -65
2 -20 46 -68 46 -50 0 2 3 11 6 19 3 9 -2 16 -13 19 -11 3 -36 41 -62 94 -67
135 -131 282 -131 301 0 14 29 15 328 9 180 -5 328 -9 329 -10 1 -1 5 -81 9
-178 5 -132 4 -181 -5 -192 -8 -10 -9 -16 -1 -21 5 -3 10 -23 10 -43 0 -33 -5
-41 -41 -64 -28 -18 -61 -29 -105 -33 -41 -5 -64 -12 -64 -20 0 -23 39 -62 67
-68 43 -8 103 -72 103 -107 0 -17 -3 -30 -7 -31 -5 0 -37 -2 -73 -5 -82 -5
-111 -9 -235 -29 -55 -9 -110 -16 -122 -15 -22 1 -57 1 -105 0 -13 0 -82 0
-153 1 -72 1 -144 -1 -160 -5 -27 -6 -35 -1 -72 42 -59 70 -156 221 -150 236
9 23 78 36 147 26 35 -5 66 -7 69 -5 2 3 -3 5 -12 5 -22 0 -32 20 -16 32 9 6
-3 7 -36 3 -27 -4 -81 -7 -120 -8 l-70 -2 -69 137 c-52 105 -66 141 -58 151 9
10 4 22 -17 48 -36 44 -51 73 -51 98 0 23 26 30 235 61 100 15 160 18 260 14
72 -3 134 -8 138 -11z m1956 -7 c90 -13 167 -28 172 -33 6 -6 -1 -38 -17 -84
-36 -101 -61 -148 -97 -186 -17 -18 -26 -33 -19 -33 19 0 14 -26 -13 -80 -14
-28 -32 -50 -41 -50 -24 0 -55 20 -49 31 10 15 -11 10 -25 -6 -28 -34 -150
-42 -150 -9 0 22 -18 26 -56 14 -28 -10 -54 -10 -113 0 -42 7 -81 17 -88 22
-7 5 -30 7 -52 3 -24 -4 -41 -2 -45 4 -4 6 20 59 53 118 33 60 79 149 102 198
23 50 44 92 46 95 5 6 107 16 178 18 28 1 124 -9 214 -22z m-441 6 c15 -10
-28 -116 -115 -284 -60 -116 -75 -128 -140 -109 -21 6 -45 6 -65 0 -18 -6 -76
-9 -128 -7 -86 3 -95 1 -92 -15 2 -10 -5 -20 -15 -23 -10 -3 -26 -10 -35 -15
-10 -5 -43 -9 -73 -9 -60 0 -78 16 -57 50 7 11 7 21 1 27 -14 14 1 364 15 368
6 2 155 8 331 13 176 5 329 9 340 10 11 1 26 -2 33 -6z m707 -62 c7 -12 -12
-40 -26 -40 -10 0 -12 34 -2 43 9 10 21 9 28 -3z m-1527 -522 c-7 -19 -38 -22
-38 -4 0 10 9 16 21 16 12 0 19 -5 17 -12z m1508 -69 c68 -47 89 -108 26 -75
-16 8 -31 14 -33 12 -2 -2 -34 -6 -70 -10 -82 -8 -91 4 -46 63 38 50 62 52
123 10z"/>
<path d="M4850 9589 c0 -5 5 -7 10 -4 6 3 10 8 10 11 0 2 -4 4 -10 4 -5 0 -10
-5 -10 -11z"/>
<path d="M4455 9520 c-3 -5 -2 -10 4 -10 5 0 13 5 16 10 3 6 2 10 -4 10 -5 0
-13 -4 -16 -10z"/>
<path d="M6917 9302 c-22 -3 -27 -7 -22 -22 5 -15 -2 -23 -32 -35 -30 -13 -35
-18 -23 -25 8 -5 22 -10 31 -10 9 0 22 -7 30 -16 9 -11 20 -13 38 -8 14 4 37
6 51 6 25 -1 25 -1 3 10 -29 14 -50 63 -34 82 14 17 -1 23 -42 18z"/>
<path d="M6688 9293 c6 -2 18 -2 25 0 6 3 1 5 -13 5 -14 0 -19 -2 -12 -5z"/>
<path d="M4853 9303 c15 -2 39 -2 55 0 15 2 2 4 -28 4 -30 0 -43 -2 -27 -4z"/>
<path d="M6624 6455 c35 -30 66 -40 98 -29 l23 7 -25 9 c-14 5 -33 7 -42 5
-10 -3 -29 3 -42 14 -36 28 -46 23 -12 -6z"/>
<path d="M7495 6391 c-3 -5 -1 -12 5 -16 5 -3 10 1 10 9 0 18 -6 21 -15 7z"/>
<path d="M8790 6323 c-8 -3 -19 -12 -23 -19 -10 -17 -104 -19 -109 -3 -2 7
-18 6 -51 -2 -34 -10 -47 -18 -47 -31 0 -18 -5 -20 -44 -22 -11 -1 -21 -6 -23
-12 -5 -15 129 -17 164 -2 16 6 58 14 94 18 70 7 118 32 119 63 0 13 -8 17
-32 16 -18 0 -40 -3 -48 -6z"/>
<path d="M7925 6217 c11 -7 33 -27 50 -44 34 -36 45 -40 45 -19 0 7 -12 22
-27 31 -16 10 -32 24 -36 32 -4 7 -18 13 -30 12 -21 0 -22 0 -2 -12z"/>
<path d="M5596 4664 c-9 -22 3 -32 14 -14 12 19 12 30 1 30 -5 0 -12 -7 -15
-16z"/>
<path d="M5531 4539 c-19 -24 -29 -29 -48 -24 -35 8 -27 -25 10 -43 16 -8 33
-26 38 -40 11 -28 57 -82 70 -82 4 0 2 13 -4 30 -10 25 -8 32 11 53 21 23 21
23 2 40 -11 9 -23 35 -26 57 -8 47 -21 50 -53 9z"/>
<path d="M5518 3093 c7 -3 16 -2 19 1 4 3 -2 6 -13 5 -11 0 -14 -3 -6 -6z"/>
<path d="M5468 3083 c7 -3 16 -2 19 1 4 3 -2 6 -13 5 -11 0 -14 -3 -6 -6z"/>
<path d="M5930 3033 c0 -19 46 -47 55 -34 2 4 -9 18 -25 30 -27 20 -30 20 -30
4z"/>
<path d="M5625 10500 c3 -5 10 -10 16 -10 5 0 9 5 9 10 0 6 -7 10 -16 10 -8 0
-12 -4 -9 -10z"/>
<path d="M7200 10500 c0 -5 5 -10 10 -10 6 0 10 5 10 10 0 6 -4 10 -10 10 -5
0 -10 -4 -10 -10z"/>
<path d="M6955 10469 c-12 -19 5 -23 22 -6 16 16 16 17 1 17 -9 0 -20 -5 -23
-11z"/>
<path d="M2947 8493 c-4 -3 -7 -11 -7 -17 0 -6 5 -5 12 2 6 6 9 14 7 17 -3 3
-9 2 -12 -2z"/>
<path d="M2875 8379 c-4 -6 -5 -13 -2 -16 7 -7 27 6 27 18 0 12 -17 12 -25 -2z"/>
<path d="M2850 7681 c0 -5 5 -13 10 -16 6 -3 10 -2 10 4 0 5 -4 13 -10 16 -5
3 -10 2 -10 -4z"/>
<path d="M2425 6237 c-4 -10 -5 -51 -2 -91 6 -82 39 -308 44 -303 3 3 -24 350
-30 392 -3 19 -4 19 -12 2z"/>
<path d="M3331 3946 c13 -14 81 -56 89 -56 23 0 7 19 -25 30 -19 6 -35 16 -35
21 0 5 -7 9 -17 9 -9 0 -14 -2 -12 -4z"/>
<path d="M8789 3463 c-13 -16 -12 -17 4 -4 16 13 21 21 13 21 -2 0 -10 -8 -17
-17z"/>
<path d="M8759 3423 c-13 -16 -12 -17 4 -4 16 13 21 21 13 21 -2 0 -10 -8 -17
-17z"/>
<path d="M4756 3132 c-3 -6 1 -13 10 -16 23 -9 28 -2 10 13 -8 7 -17 8 -20 3z"/>
<path d="M8100 3130 c-12 -8 -10 -10 8 -10 13 0 20 4 17 10 -7 12 -6 12 -25 0z"/>
<path d="M4825 3100 c3 -5 13 -10 21 -10 8 0 12 5 9 10 -3 6 -13 10 -21 10 -8
0 -12 -4 -9 -10z"/>
<path d="M8020 3100 c0 -13 11 -13 30 0 12 8 11 10 -7 10 -13 0 -23 -4 -23
-10z"/>
<path d="M4404 3051 c4 -6 16 -16 28 -22 15 -8 18 -8 14 0 -4 6 -16 16 -28 22
-15 8 -18 8 -14 0z"/>
</g>
</svg>
